<svg width="18" height="20" viewBox="0 0 18 20" fill="none" xmlns="http://www.w3.org/2000/svg">
                        <path d="M8.99534 0C13.0542 0 16.3683 3.20182 16.5078 7.26511L16.512 7.51662V11.6227L17.895 14.7857C17.9642 14.9439 18 15.1148 18 15.2876C18 15.9795 17.4391 16.5403 16.7472 16.5403L12.002 16.5418C12.002 18.2024 10.6559 19.5485 8.99534 19.5485C7.39412 19.5485 6.08525 18.2968 5.9938 16.7185L5.98824 16.5396L1.25309 16.5403C1.08137 16.5403 0.911485 16.505 0.753983 16.4366C0.119377 16.161 -0.171615 15.4231 0.104034 14.7885L1.47872 11.6236V7.51651C1.47932 3.35251 4.83824 0 8.99534 0ZM10.4982 16.5396L7.49202 16.5418C7.49202 17.3721 8.16508 18.0452 8.99534 18.0452C9.77676 18.0452 10.4189 17.449 10.4918 16.6866L10.4982 16.5396ZM8.99534 1.50332C5.66782 1.50332 2.98252 4.1835 2.98205 7.51662V11.936L1.63509 15.037H16.3642L15.0086 11.937L15.0087 7.5295L15.005 7.3038C14.8937 4.06316 12.2441 1.50332 8.99534 1.50332Z" fill="#121212"></path>
                    </svg>