<svg width="12" height="12" viewBox="0 0 12 12" fill="none" xmlns="http://www.w3.org/2000/svg">
<path d="M6.00023 0C6.27636 0 6.50021 0.22385 6.50021 0.499982V4.33318H8.16377C9.17625 4.33318 9.99704 5.15396 9.99704 6.16645V10.294L11.1467 9.14588C11.3421 8.95076 11.6587 8.95097 11.8538 9.14636C12.0489 9.34175 12.0487 9.65832 11.8533 9.85344L9.85036 11.8537C9.65507 12.0487 9.33868 12.0486 9.14352 11.8535L7.14325 9.8532C6.948 9.65795 6.948 9.34138 7.14325 9.14612C7.33851 8.95087 7.65508 8.95087 7.85033 9.14612L8.99707 10.2929V6.16645C8.99707 5.70623 8.62399 5.33314 8.16377 5.33314H3.83357C3.37335 5.33314 3.00027 5.70623 3.00027 6.16645V10.2929L4.14701 9.14612C4.34227 8.95087 4.65884 8.95087 4.85409 9.14612C5.04935 9.34138 5.04935 9.65795 4.85409 9.8532L2.85383 11.8535C2.65857 12.0487 2.342 12.0487 2.14675 11.8535L0.146445 9.85321C-0.0488122 9.65795 -0.0488154 9.34138 0.146438 9.14612C0.341691 8.95087 0.658262 8.95086 0.85352 9.14612L2.0003 10.2929V6.16645C2.0003 5.15396 2.82109 4.33318 3.83357 4.33318H5.50025V0.499982C5.50025 0.22385 5.7241 0 6.00023 0Z" fill="#A3ACA3"/>
</svg>
