<svg width="13" height="15" viewBox="0 0 13 15" fill="none" xmlns="http://www.w3.org/2000/svg">
<path d="M7.68306 3.15096C7.46117 2.92907 7.441 2.58185 7.62254 2.33717L7.68306 2.26708L9.65591 0.291988C9.76066 0.11834 9.96909 0 10.2091 0C10.4192 0 10.605 0.0907183 10.7183 0.229818L10.7623 0.292271L12.735 2.26708L12.7955 2.33717C12.9569 2.55466 12.9589 2.85318 12.8015 3.07267L12.735 3.15096L12.6649 3.21147C12.4474 3.37285 12.1489 3.37484 11.9294 3.21745L11.8511 3.15096L10.8333 2.13333V5.28653L10.8276 5.36073C10.7862 5.62766 10.5247 5.83333 10.2083 5.83333C9.89184 5.83333 9.63038 5.62754 9.58903 5.3606L9.58333 5.28639V2.13333L8.56694 3.15096L8.49684 3.21147C8.25217 3.39302 7.90495 3.37285 7.68306 3.15096ZM7.68549 11.849C7.90738 11.6272 8.2546 11.607 8.49928 11.7885L8.56937 11.849L9.58577 12.8667V9.71361C9.58572 9.41158 9.86551 9.16667 10.2107 9.16667C10.5271 9.16667 10.7886 9.37234 10.8301 9.63927L10.8358 9.71347V12.8667L11.8535 11.849C12.0754 11.6272 12.4226 11.607 12.6673 11.7885L12.7374 11.849C12.9593 12.0709 12.9795 12.4181 12.7979 12.6628L12.7374 12.7329L10.7647 14.7077C10.6601 14.8815 10.4516 15 10.2115 15C9.97152 15 9.76309 14.8817 9.65835 14.708L7.68549 12.7329C7.44141 12.4888 7.44141 12.0931 7.68549 11.849ZM1.875 0.826823C0.839466 0.826823 0 1.66629 0 2.70182V12.2852C0 13.3207 0.839466 14.1602 1.875 14.1602H5.20833C5.55351 14.1602 5.83333 13.8803 5.83333 13.5352C5.83333 13.19 5.55351 12.9102 5.20833 12.9102H1.875C1.52982 12.9102 1.25 12.6303 1.25 12.2852V2.70182C1.25 2.35664 1.52982 2.07682 1.875 2.07682H5.20833C5.55351 2.07682 5.83333 1.797 5.83333 1.45182C5.83333 1.10664 5.55351 0.826823 5.20833 0.826823H1.875Z" fill="#121212"/>
</svg>
