<svg width="13" height="17" viewBox="0 0 13 17" fill="none" xmlns="http://www.w3.org/2000/svg">
<path d="M11.688 15.7217C12.0401 15.7216 12.3257 16.007 12.3257 16.3591C12.3257 16.7112 12.0405 16.9967 11.6884 16.9968L0.637722 17C0.28562 17.0001 0 16.7148 0 16.3626C0 16.0105 0.285251 15.725 0.637353 15.7249L11.688 15.7217ZM6.07635 0.00582001L6.16286 0C6.48563 0 6.75237 0.239845 6.79458 0.551028L6.8004 0.637538L6.79955 12.2705L9.96328 9.10801C10.1896 8.88169 10.5438 8.86115 10.7934 9.04637L10.8649 9.1081C11.0912 9.33446 11.1118 9.68865 10.9265 9.93822L10.8648 10.0097L6.61655 14.2571C6.39032 14.4833 6.03637 14.5039 5.7868 14.319L5.71529 14.2574L1.46211 10.01C1.21297 9.76117 1.21269 9.35751 1.4615 9.10836C1.68768 8.88187 2.04185 8.86105 2.29156 9.04607L2.36311 9.10775L5.52448 12.2645L5.52533 0.637538C5.52533 0.314777 5.76517 0.0480356 6.07635 0.00582001L6.16286 0L6.07635 0.00582001Z" fill="#545454"/>
</svg>
