<svg width="13" height="17" viewBox="0 0 13 17" fill="none" xmlns="http://www.w3.org/2000/svg">
<path d="M11.688 1.27827C12.0401 1.27838 12.3257 0.993024 12.3257 0.640922C12.3257 0.28882 12.0405 0.00330108 11.6884 0.00319894L0.637722 2.74141e-08C0.28562 -0.000102117 0 0.285251 0 0.637353C0 0.989455 0.285251 1.27497 0.637353 1.27508L11.688 1.27827ZM6.07635 16.9942L6.16286 17C6.48563 17 6.75237 16.7602 6.79458 16.449L6.8004 16.3625L6.79955 4.72953L9.96328 7.89199C10.1896 8.11831 10.5438 8.13885 10.7934 7.95364L10.8649 7.8919C11.0912 7.66554 11.1118 7.31135 10.9265 7.06178L10.8648 6.99029L6.61655 2.74291C6.39032 2.51672 6.03637 2.49606 5.7868 2.681L5.71529 2.74265L1.46211 6.99002C1.21297 7.23883 1.21269 7.64249 1.4615 7.89164C1.68768 8.11813 2.04185 8.13895 2.29156 7.95394L2.36311 7.89225L5.52448 4.73548L5.52533 16.3625C5.52533 16.6852 5.76517 16.952 6.07635 16.9942Z" fill="#545454"/>
</svg>
