<svg width="18" height="14" viewBox="0 0 18 14" fill="none" xmlns="http://www.w3.org/2000/svg">
<path d="M13.5007 0L13.4135 0.00586878C13.0997 0.0484366 12.8579 0.317404 12.8579 0.642857L12.8571 11.5217L10.0972 8.76377L10.0251 8.70155C9.77336 8.51493 9.41623 8.53582 9.1881 8.76415C8.93715 9.0153 8.93732 9.42234 9.18848 9.67328L13.0488 13.5304L13.121 13.5926C13.3727 13.7793 13.7298 13.7584 13.958 13.53L17.8119 9.6729L17.8741 9.60078C18.0607 9.34903 18.0398 8.9919 17.8115 8.76377L17.7394 8.70155C17.4876 8.51493 17.1305 8.53582 16.9024 8.76415L14.1429 11.5251L14.1436 0.642857L14.1377 0.555625C14.0952 0.241846 13.8262 0 13.5007 0ZM4.04093 0.188303L0.188274 4.04121L0.126032 4.11331C-0.0606923 4.36498 -0.0399326 4.72212 0.188303 4.95034L0.260407 5.01259C0.51208 5.19931 0.86922 5.17855 1.09744 4.95031L3.85457 2.19181L3.85514 13.0757L3.86101 13.1629C3.90357 13.4767 4.17254 13.7185 4.49799 13.7185L4.58523 13.7127C4.89901 13.6701 5.14085 13.4011 5.14085 13.0757L5.14029 2.19352L7.90274 4.95082L7.97491 5.01299C8.22678 5.19945 8.58389 5.17831 8.81187 4.94983C9.06265 4.69851 9.06221 4.29148 8.81088 4.0407L4.94958 0.187794L4.87747 0.125669C4.62579 -0.0606839 4.26898 -0.0397621 4.04093 0.188303Z" fill="#121212"/>
</svg>
