<svg width="15" height="15" viewBox="0 0 15 15" fill="none" xmlns="http://www.w3.org/2000/svg">
<path d="M7.50031 0C7.84547 0 8.12529 0.279813 8.12529 0.62498V5.41649H10.2047C11.4704 5.41649 12.4963 6.44247 12.4963 7.70808V12.8676L13.9334 11.4324C14.1777 11.1885 14.5734 11.1887 14.8173 11.433C15.0612 11.6772 15.0609 12.0729 14.8167 12.3168L12.313 14.8172C12.0689 15.061 11.6734 15.0608 11.4294 14.8169L8.92909 12.3165C8.68502 12.0725 8.68502 11.6768 8.92909 11.4327C9.17316 11.1886 9.56887 11.1886 9.81294 11.4327L11.2464 12.8661V7.70808C11.2464 7.13281 10.78 6.66645 10.2047 6.66645H4.79198C4.2167 6.66645 3.75035 7.13281 3.75035 7.70808V12.8661L5.18378 11.4327C5.42785 11.1886 5.82357 11.1886 6.06763 11.4327C6.3117 11.6768 6.3117 12.0725 6.06763 12.3165L3.56729 14.8169C3.32323 15.0609 2.92751 15.0609 2.68344 14.8169L0.183057 12.3165C-0.0610155 12.0725 -0.0610194 11.6768 0.183048 11.4327C0.427115 11.1886 0.82283 11.1886 1.0669 11.4327L2.50039 12.8661V7.70808C2.50039 6.44247 3.52637 5.41649 4.79198 5.41649H6.87533V0.62498C6.87533 0.279813 7.15514 0 7.50031 0Z" fill="white"/>
</svg>
