<svg width="12" height="12" viewBox="0 0 12 12" fill="none" xmlns="http://www.w3.org/2000/svg">
<path d="M4.83333 1H7.16667C7.44281 1 7.66667 1.22386 7.66667 1.5V2.66667H4.33333V1.5C4.33333 1.22386 4.55719 1 4.83333 1ZM3.33333 1.5V2.66667H2.16667C0.97005 2.66667 0 3.63672 0 4.83333V5.83333C0 6.47767 0.522334 7 1.16667 7H4.66667V6.66667C4.66667 6.29848 4.96514 6 5.33333 6H6.66667C7.03486 6 7.33333 6.29848 7.33333 6.66667V7H10.8333C11.4777 7 12 6.47767 12 5.83333V4.83333C12 3.63672 11.03 2.66667 9.83333 2.66667H8.66667V1.5C8.66667 0.671573 7.99509 0 7.16667 0H4.83333C4.00491 0 3.33333 0.671573 3.33333 1.5ZM12 7.65939C11.6632 7.875 11.2629 8 10.8333 8H7.33333C7.33333 8.36819 7.03486 8.66667 6.66667 8.66667H5.33333C4.96514 8.66667 4.66667 8.36819 4.66667 8H1.16667C0.737119 8 0.336767 7.875 0 7.65939V9.83333C0 11.03 0.970049 12 2.16667 12H9.83333C11.03 12 12 11.03 12 9.83333V7.65939Z" fill="#AFAFAF"/>
<path d="M4.83333 1H7.16667C7.44281 1 7.66667 1.22386 7.66667 1.5V2.66667H4.33333V1.5C4.33333 1.22386 4.55719 1 4.83333 1ZM3.33333 1.5V2.66667H2.16667C0.97005 2.66667 0 3.63672 0 4.83333V5.83333C0 6.47767 0.522334 7 1.16667 7H4.66667V6.66667C4.66667 6.29848 4.96514 6 5.33333 6H6.66667C7.03486 6 7.33333 6.29848 7.33333 6.66667V7H10.8333C11.4777 7 12 6.47767 12 5.83333V4.83333C12 3.63672 11.03 2.66667 9.83333 2.66667H8.66667V1.5C8.66667 0.671573 7.99509 0 7.16667 0H4.83333C4.00491 0 3.33333 0.671573 3.33333 1.5ZM12 7.65939C11.6632 7.875 11.2629 8 10.8333 8H7.33333C7.33333 8.36819 7.03486 8.66667 6.66667 8.66667H5.33333C4.96514 8.66667 4.66667 8.36819 4.66667 8H1.16667C0.737119 8 0.336767 7.875 0 7.65939V9.83333C0 11.03 0.970049 12 2.16667 12H9.83333C11.03 12 12 11.03 12 9.83333V7.65939Z" fill="black" fill-opacity="0.7" style="mix-blend-mode:hue"/>
<path d="M4.83333 1H7.16667C7.44281 1 7.66667 1.22386 7.66667 1.5V2.66667H4.33333V1.5C4.33333 1.22386 4.55719 1 4.83333 1ZM3.33333 1.5V2.66667H2.16667C0.97005 2.66667 0 3.63672 0 4.83333V5.83333C0 6.47767 0.522334 7 1.16667 7H4.66667V6.66667C4.66667 6.29848 4.96514 6 5.33333 6H6.66667C7.03486 6 7.33333 6.29848 7.33333 6.66667V7H10.8333C11.4777 7 12 6.47767 12 5.83333V4.83333C12 3.63672 11.03 2.66667 9.83333 2.66667H8.66667V1.5C8.66667 0.671573 7.99509 0 7.16667 0H4.83333C4.00491 0 3.33333 0.671573 3.33333 1.5ZM12 7.65939C11.6632 7.875 11.2629 8 10.8333 8H7.33333C7.33333 8.36819 7.03486 8.66667 6.66667 8.66667H5.33333C4.96514 8.66667 4.66667 8.36819 4.66667 8H1.16667C0.737119 8 0.336767 7.875 0 7.65939V9.83333C0 11.03 0.970049 12 2.16667 12H9.83333C11.03 12 12 11.03 12 9.83333V7.65939Z" fill="white" fill-opacity="0.16"/>
</svg>
