<svg width="9" height="10" viewBox="0 0 9 10" fill="none" xmlns="http://www.w3.org/2000/svg">
<path d="M3.48616 0.222089C3.64526 0.0624183 3.90368 0.061958 4.06335 0.221061L8.54019 4.68198C8.71627 4.85744 8.71627 5.14257 8.54019 5.31802L4.06335 9.77894C3.90368 9.93805 3.64526 9.93758 3.48616 9.77791C3.32705 9.61824 3.32751 9.35983 3.48718 9.20072L7.70289 5L3.48718 0.799281C3.32751 0.640178 3.32705 0.38176 3.48616 0.222089ZM0.221061 0.222089C0.380164 0.0624183 0.638582 0.061958 0.798253 0.221061L5.27509 4.68198C5.45117 4.85744 5.45117 5.14257 5.27509 5.31802L0.798253 9.77894C0.638582 9.93805 0.380164 9.93758 0.221061 9.77791C0.061958 9.61824 0.0624183 9.35983 0.222089 9.20072L4.4378 5L0.222089 0.799281C0.0624183 0.640178 0.061958 0.38176 0.221061 0.222089Z" fill="#121212"/>
<path fill-rule="evenodd" clip-rule="evenodd" d="M0.726232 0.293339C0.606479 0.174011 0.412666 0.174356 0.293339 0.29411C0.174011 0.413863 0.174356 0.607676 0.29411 0.727003L4.50982 4.92772C4.52904 4.94687 4.53983 4.97288 4.53983 5C4.53983 5.02713 4.52904 5.05313 4.50982 5.07228L0.29411 9.273C0.174356 9.39233 0.174011 9.58614 0.293339 9.70589C0.412666 9.82565 0.606479 9.82599 0.726232 9.70666L5.20307 5.24574C5.33913 5.11017 5.33913 4.88984 5.20307 4.75426L0.726232 0.293339ZM0.148784 0.150069C0.347663 -0.04952 0.670684 -0.0500953 0.870273 0.148784L5.34711 4.6097C5.56321 4.82503 5.56321 5.17497 5.34711 5.3903L0.870273 9.85122C0.670684 10.0501 0.347663 10.0495 0.148784 9.84993C-0.0500952 9.65034 -0.04952 9.32732 0.150069 9.12844L4.29324 5L0.150069 0.871558C-0.04952 0.672679 -0.0500953 0.349657 0.148784 0.150069ZM3.99133 0.293339C3.87157 0.174011 3.67776 0.174356 3.55843 0.29411C3.43911 0.413863 3.43945 0.607676 3.5592 0.727003L7.77491 4.92772C7.79413 4.94687 7.80493 4.97288 7.80493 5C7.80493 5.02713 7.79413 5.05313 7.77491 5.07228L3.5592 9.273C3.43945 9.39233 3.43911 9.58614 3.55843 9.70589C3.67776 9.82565 3.87157 9.82599 3.99133 9.70666L8.46817 5.24574C8.60423 5.11017 8.60423 4.88984 8.46817 4.75426L3.99133 0.293339ZM3.41388 0.150069C3.61276 -0.04952 3.93578 -0.0500953 4.13537 0.148784L8.61221 4.6097C8.82831 4.82503 8.8283 5.17497 8.61221 5.3903L4.13537 9.85122C3.93578 10.0501 3.61276 10.0495 3.41388 9.84993C3.215 9.65034 3.21557 9.32732 3.41516 9.12844L7.55834 5L3.41516 0.871558C3.21557 0.672679 3.215 0.349658 3.41388 0.150069Z" fill="#121212"/>
</svg>
