<svg width="14" height="14" viewBox="0 0 14 14" fill="none" xmlns="http://www.w3.org/2000/svg">
<path d="M6.99999 0C10.866 0 14 3.134 14 6.99999C14 10.866 10.866 14 6.99999 14C3.134 14 0 10.866 0 6.99999C0 3.134 3.134 0 6.99999 0ZM3.82877 5.57877C3.62374 5.78379 3.62374 6.1162 3.82877 6.32123L6.62876 9.12122C6.83379 9.32625 7.1662 9.32625 7.37123 9.12122L10.1712 6.32123C10.3762 6.1162 10.3762 5.78379 10.1712 5.57877C9.9662 5.37374 9.63379 5.37374 9.42876 5.57877L6.99999 8.00753L4.57123 5.57877C4.3662 5.37374 4.03379 5.37374 3.82877 5.57877Z" fill="#AFAFAF"/>
<path d="M6.99999 0C10.866 0 14 3.134 14 6.99999C14 10.866 10.866 14 6.99999 14C3.134 14 0 10.866 0 6.99999C0 3.134 3.134 0 6.99999 0ZM3.82877 5.57877C3.62374 5.78379 3.62374 6.1162 3.82877 6.32123L6.62876 9.12122C6.83379 9.32625 7.1662 9.32625 7.37123 9.12122L10.1712 6.32123C10.3762 6.1162 10.3762 5.78379 10.1712 5.57877C9.9662 5.37374 9.63379 5.37374 9.42876 5.57877L6.99999 8.00753L4.57123 5.57877C4.3662 5.37374 4.03379 5.37374 3.82877 5.57877Z" fill="black" fill-opacity="0.7" style="mix-blend-mode:hue"/>
<path d="M6.99999 0C10.866 0 14 3.134 14 6.99999C14 10.866 10.866 14 6.99999 14C3.134 14 0 10.866 0 6.99999C0 3.134 3.134 0 6.99999 0ZM3.82877 5.57877C3.62374 5.78379 3.62374 6.1162 3.82877 6.32123L6.62876 9.12122C6.83379 9.32625 7.1662 9.32625 7.37123 9.12122L10.1712 6.32123C10.3762 6.1162 10.3762 5.78379 10.1712 5.57877C9.9662 5.37374 9.63379 5.37374 9.42876 5.57877L6.99999 8.00753L4.57123 5.57877C4.3662 5.37374 4.03379 5.37374 3.82877 5.57877Z" fill="white" fill-opacity="0.16"/>
</svg>
