<svg width="13" height="14" viewBox="0 0 13 14" fill="none" xmlns="http://www.w3.org/2000/svg">
<path d="M3.33333 4.33349V0.499999C3.33333 0.223857 3.55719 0 3.83333 0C4.10947 0 4.33333 0.223857 4.33333 0.499999V4.33349C4.33333 4.51759 4.48257 4.66682 4.66666 4.66682C4.85076 4.66682 4.99999 4.51759 4.99999 4.33349V0.999999C4.99999 0.723857 5.22385 0.499999 5.49999 0.499999C5.77614 0.499999 5.99999 0.723857 5.99999 0.999999V4.83333C5.99999 4.84747 5.99941 4.86148 5.99825 4.87532C6.28641 4.76644 6.64724 4.66413 6.99999 4.66413C7.33322 4.66413 7.61821 4.74735 7.82947 4.85375C7.93377 4.90628 8.03077 4.96984 8.11002 5.04193C8.14898 5.07736 8.19394 5.12416 8.23303 5.18232C8.26376 5.22803 8.33332 5.34206 8.33332 5.49999C8.33332 5.67239 8.24451 5.83262 8.09832 5.92399L6.82743 6.7183L5.72221 7.97896L4.80402 9.2437C4.4591 9.71879 3.90753 9.99995 3.32044 9.99995H2.56142C1.94077 9.99995 1.34566 9.6847 1.02482 9.12589C0.823396 8.77506 0.574029 8.31408 0.373546 7.85784C0.182821 7.4238 0 6.91593 0 6.49996V1.83333C0 1.55719 0.223857 1.33333 0.499999 1.33333C0.776141 1.33333 0.999999 1.55719 0.999999 1.83333V4.66528C0.999999 4.84938 1.14924 4.99861 1.33333 4.99861C1.51743 4.99861 1.66666 4.84938 1.66666 4.66528V0.999999C1.66666 0.723857 1.89052 0.499999 2.16666 0.499999C2.44281 0.499999 2.66666 0.723857 2.66666 0.999999V4.33349C2.66666 4.51759 2.8159 4.66682 3 4.66682C3.18409 4.66682 3.33333 4.51759 3.33333 4.33349ZM8.33327 14C6.19906 14 4.39946 12.5673 3.84375 10.6113C4.44096 10.4834 4.9775 10.1394 5.34345 9.63538L6.24364 8.39543L7.26395 7.23162L8.4516 6.48934C8.79271 6.27615 8.99993 5.90226 8.99993 5.50001C8.99993 5.14581 8.84472 4.89738 8.78625 4.81041C8.7536 4.76183 8.71967 4.71834 8.68649 4.67985C11.0988 4.86038 12.9999 6.87484 12.9999 9.33334C12.9999 11.9107 10.9106 14 8.33327 14ZM10.3333 8.66667C10.3333 8.29848 10.0348 8.00001 9.6666 8.00001C9.29841 8.00001 8.99993 8.29848 8.99993 8.66667C8.99993 9.03486 9.29841 9.33334 9.6666 9.33334C10.0348 9.33334 10.3333 9.03486 10.3333 8.66667ZM6.4248 10.4748C6.22578 10.6662 6.21963 10.9827 6.41107 11.1817C6.89562 11.6855 7.57808 12 8.33314 12C9.08819 12 9.77065 11.6855 10.2552 11.1817C10.4466 10.9827 10.4405 10.6662 10.2415 10.4748C10.0425 10.2833 9.72593 10.2895 9.5345 10.4885C9.23066 10.8044 8.80517 11 8.33314 11C7.86111 11 7.43562 10.8044 7.13177 10.4885C6.94034 10.2895 6.62382 10.2833 6.4248 10.4748ZM7.6666 8.66667C7.6666 8.29848 7.36813 8.00001 6.99994 8.00001C6.63175 8.00001 6.33327 8.29848 6.33327 8.66667C6.33327 9.03486 6.63175 9.33334 6.99994 9.33334C7.36813 9.33334 7.6666 9.03486 7.6666 8.66667Z" fill="#83A588"/>
<path d="M3.33333 4.33349V0.499999C3.33333 0.223857 3.55719 0 3.83333 0C4.10947 0 4.33333 0.223857 4.33333 0.499999V4.33349C4.33333 4.51759 4.48257 4.66682 4.66666 4.66682C4.85076 4.66682 4.99999 4.51759 4.99999 4.33349V0.999999C4.99999 0.723857 5.22385 0.499999 5.49999 0.499999C5.77614 0.499999 5.99999 0.723857 5.99999 0.999999V4.83333C5.99999 4.84747 5.99941 4.86148 5.99825 4.87532C6.28641 4.76644 6.64724 4.66413 6.99999 4.66413C7.33322 4.66413 7.61821 4.74735 7.82947 4.85375C7.93377 4.90628 8.03077 4.96984 8.11002 5.04193C8.14898 5.07736 8.19394 5.12416 8.23303 5.18232C8.26376 5.22803 8.33332 5.34206 8.33332 5.49999C8.33332 5.67239 8.24451 5.83262 8.09832 5.92399L6.82743 6.7183L5.72221 7.97896L4.80402 9.2437C4.4591 9.71879 3.90753 9.99995 3.32044 9.99995H2.56142C1.94077 9.99995 1.34566 9.6847 1.02482 9.12589C0.823396 8.77506 0.574029 8.31408 0.373546 7.85784C0.182821 7.4238 0 6.91593 0 6.49996V1.83333C0 1.55719 0.223857 1.33333 0.499999 1.33333C0.776141 1.33333 0.999999 1.55719 0.999999 1.83333V4.66528C0.999999 4.84938 1.14924 4.99861 1.33333 4.99861C1.51743 4.99861 1.66666 4.84938 1.66666 4.66528V0.999999C1.66666 0.723857 1.89052 0.499999 2.16666 0.499999C2.44281 0.499999 2.66666 0.723857 2.66666 0.999999V4.33349C2.66666 4.51759 2.8159 4.66682 3 4.66682C3.18409 4.66682 3.33333 4.51759 3.33333 4.33349ZM8.33327 14C6.19906 14 4.39946 12.5673 3.84375 10.6113C4.44096 10.4834 4.9775 10.1394 5.34345 9.63538L6.24364 8.39543L7.26395 7.23162L8.4516 6.48934C8.79271 6.27615 8.99993 5.90226 8.99993 5.50001C8.99993 5.14581 8.84472 4.89738 8.78625 4.81041C8.7536 4.76183 8.71967 4.71834 8.68649 4.67985C11.0988 4.86038 12.9999 6.87484 12.9999 9.33334C12.9999 11.9107 10.9106 14 8.33327 14ZM10.3333 8.66667C10.3333 8.29848 10.0348 8.00001 9.6666 8.00001C9.29841 8.00001 8.99993 8.29848 8.99993 8.66667C8.99993 9.03486 9.29841 9.33334 9.6666 9.33334C10.0348 9.33334 10.3333 9.03486 10.3333 8.66667ZM6.4248 10.4748C6.22578 10.6662 6.21963 10.9827 6.41107 11.1817C6.89562 11.6855 7.57808 12 8.33314 12C9.08819 12 9.77065 11.6855 10.2552 11.1817C10.4466 10.9827 10.4405 10.6662 10.2415 10.4748C10.0425 10.2833 9.72593 10.2895 9.5345 10.4885C9.23066 10.8044 8.80517 11 8.33314 11C7.86111 11 7.43562 10.8044 7.13177 10.4885C6.94034 10.2895 6.62382 10.2833 6.4248 10.4748ZM7.6666 8.66667C7.6666 8.29848 7.36813 8.00001 6.99994 8.00001C6.63175 8.00001 6.33327 8.29848 6.33327 8.66667C6.33327 9.03486 6.63175 9.33334 6.99994 9.33334C7.36813 9.33334 7.6666 9.03486 7.6666 8.66667Z" fill="black" fill-opacity="0.7" style="mix-blend-mode:hue"/>
<path d="M3.33333 4.33349V0.499999C3.33333 0.223857 3.55719 0 3.83333 0C4.10947 0 4.33333 0.223857 4.33333 0.499999V4.33349C4.33333 4.51759 4.48257 4.66682 4.66666 4.66682C4.85076 4.66682 4.99999 4.51759 4.99999 4.33349V0.999999C4.99999 0.723857 5.22385 0.499999 5.49999 0.499999C5.77614 0.499999 5.99999 0.723857 5.99999 0.999999V4.83333C5.99999 4.84747 5.99941 4.86148 5.99825 4.87532C6.28641 4.76644 6.64724 4.66413 6.99999 4.66413C7.33322 4.66413 7.61821 4.74735 7.82947 4.85375C7.93377 4.90628 8.03077 4.96984 8.11002 5.04193C8.14898 5.07736 8.19394 5.12416 8.23303 5.18232C8.26376 5.22803 8.33332 5.34206 8.33332 5.49999C8.33332 5.67239 8.24451 5.83262 8.09832 5.92399L6.82743 6.7183L5.72221 7.97896L4.80402 9.2437C4.4591 9.71879 3.90753 9.99995 3.32044 9.99995H2.56142C1.94077 9.99995 1.34566 9.6847 1.02482 9.12589C0.823396 8.77506 0.574029 8.31408 0.373546 7.85784C0.182821 7.4238 0 6.91593 0 6.49996V1.83333C0 1.55719 0.223857 1.33333 0.499999 1.33333C0.776141 1.33333 0.999999 1.55719 0.999999 1.83333V4.66528C0.999999 4.84938 1.14924 4.99861 1.33333 4.99861C1.51743 4.99861 1.66666 4.84938 1.66666 4.66528V0.999999C1.66666 0.723857 1.89052 0.499999 2.16666 0.499999C2.44281 0.499999 2.66666 0.723857 2.66666 0.999999V4.33349C2.66666 4.51759 2.8159 4.66682 3 4.66682C3.18409 4.66682 3.33333 4.51759 3.33333 4.33349ZM8.33327 14C6.19906 14 4.39946 12.5673 3.84375 10.6113C4.44096 10.4834 4.9775 10.1394 5.34345 9.63538L6.24364 8.39543L7.26395 7.23162L8.4516 6.48934C8.79271 6.27615 8.99993 5.90226 8.99993 5.50001C8.99993 5.14581 8.84472 4.89738 8.78625 4.81041C8.7536 4.76183 8.71967 4.71834 8.68649 4.67985C11.0988 4.86038 12.9999 6.87484 12.9999 9.33334C12.9999 11.9107 10.9106 14 8.33327 14ZM10.3333 8.66667C10.3333 8.29848 10.0348 8.00001 9.6666 8.00001C9.29841 8.00001 8.99993 8.29848 8.99993 8.66667C8.99993 9.03486 9.29841 9.33334 9.6666 9.33334C10.0348 9.33334 10.3333 9.03486 10.3333 8.66667ZM6.4248 10.4748C6.22578 10.6662 6.21963 10.9827 6.41107 11.1817C6.89562 11.6855 7.57808 12 8.33314 12C9.08819 12 9.77065 11.6855 10.2552 11.1817C10.4466 10.9827 10.4405 10.6662 10.2415 10.4748C10.0425 10.2833 9.72593 10.2895 9.5345 10.4885C9.23066 10.8044 8.80517 11 8.33314 11C7.86111 11 7.43562 10.8044 7.13177 10.4885C6.94034 10.2895 6.62382 10.2833 6.4248 10.4748ZM7.6666 8.66667C7.6666 8.29848 7.36813 8.00001 6.99994 8.00001C6.63175 8.00001 6.33327 8.29848 6.33327 8.66667C6.33327 9.03486 6.63175 9.33334 6.99994 9.33334C7.36813 9.33334 7.6666 9.03486 7.6666 8.66667Z" fill="white" fill-opacity="0.16"/>
</svg>
