<svg width="16" height="14" viewBox="0 0 16 14" fill="none" xmlns="http://www.w3.org/2000/svg">
                        <path fill-rule="evenodd" clip-rule="evenodd" d="M0 1C0 0.447715 0.447715 0 1 0H15C15.5523 0 16 0.447715 16 1C16 1.55228 15.5523 2 15 2H1C0.447715 2 0 1.55228 0 1ZM3 7C3 6.44772 3.44772 6 4 6H12C12.5523 6 13 6.44772 13 7C13 7.55228 12.5523 8 12 8H4C3.44772 8 3 7.55228 3 7ZM6 12C6 11.4477 6.44772 11 7 11H9C9.55228 11 10 11.4477 10 12C10 12.5523 9.55228 13 9 13H7C6.44772 13 6 12.5523 6 12Z" fill="#121212"></path>
                    </svg>