<svg width="14" height="14" viewBox="0 0 14 14" fill="none" xmlns="http://www.w3.org/2000/svg">
<path d="M4.83332 10.1477H9.16669C8.7328 12.4372 7.86395 13.9958 7.00001 13.9958C6.16224 13.9958 5.31986 12.5303 4.87395 10.3538L4.83332 10.1477H9.16669H4.83332ZM0.747033 10.1478L3.76051 10.1476C4.01582 11.605 4.44855 12.8448 5.01485 13.7125C3.22114 13.1827 1.72781 11.9546 0.849463 10.343L0.747033 10.1478ZM10.2395 10.1476L13.253 10.1478C12.3912 11.8552 10.8506 13.1616 8.98587 13.7122C9.51398 12.902 9.926 11.7682 10.1861 10.4361L10.2395 10.1476L13.253 10.1478L10.2395 10.1476ZM10.4515 5.59834L13.86 5.59791C13.9518 6.05026 14 6.51845 14 6.9979C14 7.72951 13.8878 8.43491 13.6796 9.09785H10.3882C10.4619 8.42763 10.5006 7.72348 10.5006 6.9979C10.5006 6.67992 10.4931 6.36606 10.4786 6.05737L10.4515 5.59834L13.86 5.59791L10.4515 5.59834ZM0.140023 5.59791L3.54852 5.59834C3.51615 6.05323 3.49946 6.52094 3.49946 6.9979C3.49946 7.57837 3.52418 8.14512 3.57179 8.69175L3.61177 9.09785H0.320436C0.112238 8.43491 0 7.72951 0 6.9979C0 6.51845 0.0482014 6.05026 0.140023 5.59791ZM4.60322 5.59794H9.39679C9.43196 6.04982 9.45071 6.51793 9.45071 6.9979C9.45071 7.58416 9.42274 8.15274 9.37104 8.69565L9.32788 9.09789H4.67213C4.59301 8.43593 4.5493 7.73073 4.5493 6.9979C4.5493 6.63793 4.55985 6.28462 4.57996 5.93982L4.60322 5.59794H9.39679H4.60322ZM9.06068 0.402517L8.98517 0.283376C11.0977 0.906963 12.7942 2.50034 13.5593 4.54805L10.3462 4.54825C10.1254 2.85666 9.67678 1.40391 9.06068 0.402517L8.98517 0.283376L9.06068 0.402517ZM4.92957 0.309143L5.0148 0.283402C4.39837 1.22791 3.94021 2.61343 3.69689 4.24041L3.65379 4.54825L0.440671 4.54805C1.19548 2.52797 2.85674 0.95004 4.92957 0.309143L5.0148 0.283402L4.92957 0.309143ZM7.00001 0C7.92302 0 8.85163 1.77895 9.24944 4.32774L9.28223 4.54807H4.71778C5.09531 1.88206 6.05062 0 7.00001 0Z" fill="#AFAFAF"/>
<path d="M4.83332 10.1477H9.16669C8.7328 12.4372 7.86395 13.9958 7.00001 13.9958C6.16224 13.9958 5.31986 12.5303 4.87395 10.3538L4.83332 10.1477H9.16669H4.83332ZM0.747033 10.1478L3.76051 10.1476C4.01582 11.605 4.44855 12.8448 5.01485 13.7125C3.22114 13.1827 1.72781 11.9546 0.849463 10.343L0.747033 10.1478ZM10.2395 10.1476L13.253 10.1478C12.3912 11.8552 10.8506 13.1616 8.98587 13.7122C9.51398 12.902 9.926 11.7682 10.1861 10.4361L10.2395 10.1476L13.253 10.1478L10.2395 10.1476ZM10.4515 5.59834L13.86 5.59791C13.9518 6.05026 14 6.51845 14 6.9979C14 7.72951 13.8878 8.43491 13.6796 9.09785H10.3882C10.4619 8.42763 10.5006 7.72348 10.5006 6.9979C10.5006 6.67992 10.4931 6.36606 10.4786 6.05737L10.4515 5.59834L13.86 5.59791L10.4515 5.59834ZM0.140023 5.59791L3.54852 5.59834C3.51615 6.05323 3.49946 6.52094 3.49946 6.9979C3.49946 7.57837 3.52418 8.14512 3.57179 8.69175L3.61177 9.09785H0.320436C0.112238 8.43491 0 7.72951 0 6.9979C0 6.51845 0.0482014 6.05026 0.140023 5.59791ZM4.60322 5.59794H9.39679C9.43196 6.04982 9.45071 6.51793 9.45071 6.9979C9.45071 7.58416 9.42274 8.15274 9.37104 8.69565L9.32788 9.09789H4.67213C4.59301 8.43593 4.5493 7.73073 4.5493 6.9979C4.5493 6.63793 4.55985 6.28462 4.57996 5.93982L4.60322 5.59794H9.39679H4.60322ZM9.06068 0.402517L8.98517 0.283376C11.0977 0.906963 12.7942 2.50034 13.5593 4.54805L10.3462 4.54825C10.1254 2.85666 9.67678 1.40391 9.06068 0.402517L8.98517 0.283376L9.06068 0.402517ZM4.92957 0.309143L5.0148 0.283402C4.39837 1.22791 3.94021 2.61343 3.69689 4.24041L3.65379 4.54825L0.440671 4.54805C1.19548 2.52797 2.85674 0.95004 4.92957 0.309143L5.0148 0.283402L4.92957 0.309143ZM7.00001 0C7.92302 0 8.85163 1.77895 9.24944 4.32774L9.28223 4.54807H4.71778C5.09531 1.88206 6.05062 0 7.00001 0Z" fill="black" fill-opacity="0.7" style="mix-blend-mode:hue"/>
<path d="M4.83332 10.1477H9.16669C8.7328 12.4372 7.86395 13.9958 7.00001 13.9958C6.16224 13.9958 5.31986 12.5303 4.87395 10.3538L4.83332 10.1477H9.16669H4.83332ZM0.747033 10.1478L3.76051 10.1476C4.01582 11.605 4.44855 12.8448 5.01485 13.7125C3.22114 13.1827 1.72781 11.9546 0.849463 10.343L0.747033 10.1478ZM10.2395 10.1476L13.253 10.1478C12.3912 11.8552 10.8506 13.1616 8.98587 13.7122C9.51398 12.902 9.926 11.7682 10.1861 10.4361L10.2395 10.1476L13.253 10.1478L10.2395 10.1476ZM10.4515 5.59834L13.86 5.59791C13.9518 6.05026 14 6.51845 14 6.9979C14 7.72951 13.8878 8.43491 13.6796 9.09785H10.3882C10.4619 8.42763 10.5006 7.72348 10.5006 6.9979C10.5006 6.67992 10.4931 6.36606 10.4786 6.05737L10.4515 5.59834L13.86 5.59791L10.4515 5.59834ZM0.140023 5.59791L3.54852 5.59834C3.51615 6.05323 3.49946 6.52094 3.49946 6.9979C3.49946 7.57837 3.52418 8.14512 3.57179 8.69175L3.61177 9.09785H0.320436C0.112238 8.43491 0 7.72951 0 6.9979C0 6.51845 0.0482014 6.05026 0.140023 5.59791ZM4.60322 5.59794H9.39679C9.43196 6.04982 9.45071 6.51793 9.45071 6.9979C9.45071 7.58416 9.42274 8.15274 9.37104 8.69565L9.32788 9.09789H4.67213C4.59301 8.43593 4.5493 7.73073 4.5493 6.9979C4.5493 6.63793 4.55985 6.28462 4.57996 5.93982L4.60322 5.59794H9.39679H4.60322ZM9.06068 0.402517L8.98517 0.283376C11.0977 0.906963 12.7942 2.50034 13.5593 4.54805L10.3462 4.54825C10.1254 2.85666 9.67678 1.40391 9.06068 0.402517L8.98517 0.283376L9.06068 0.402517ZM4.92957 0.309143L5.0148 0.283402C4.39837 1.22791 3.94021 2.61343 3.69689 4.24041L3.65379 4.54825L0.440671 4.54805C1.19548 2.52797 2.85674 0.95004 4.92957 0.309143L5.0148 0.283402L4.92957 0.309143ZM7.00001 0C7.92302 0 8.85163 1.77895 9.24944 4.32774L9.28223 4.54807H4.71778C5.09531 1.88206 6.05062 0 7.00001 0Z" fill="white" fill-opacity="0.16"/>
</svg>
