<svg width="13" height="3" viewBox="0 0 13 3" fill="none" xmlns="http://www.w3.org/2000/svg">
                        <path d="M2.93549 1.46774C2.93549 2.27835 2.27836 2.93549 1.46774 2.93549C0.657131 2.93549 0 2.27835 0 1.46774C0 0.657131 0.657131 0 1.46774 0C2.27836 0 2.93549 0.657131 2.93549 1.46774ZM7.96775 1.46774C7.96775 2.27835 7.31062 2.93549 6.50001 2.93549C5.68939 2.93549 5.03226 2.27835 5.03226 1.46774C5.03226 0.657131 5.68939 0 6.50001 0C7.31062 0 7.96775 0.657131 7.96775 1.46774ZM11.5323 2.93549C12.3429 2.93549 13 2.27835 13 1.46774C13 0.657131 12.3429 0 11.5323 0C10.7217 0 10.0645 0.657131 10.0645 1.46774C10.0645 2.27835 10.7217 2.93549 11.5323 2.93549Z" fill="#AFAFAF"></path>
                    </svg>