<svg width="11" height="14" viewBox="0 0 11 14" fill="none" xmlns="http://www.w3.org/2000/svg">
<path d="M9.45387 8.24703C10.3078 8.24703 11 8.93927 11 9.79319V10.4246C11 10.8188 10.8768 11.2032 10.6476 11.5239C9.58477 13.0112 7.84926 13.748 5.49774 13.748C3.14575 13.748 1.41116 13.0109 0.350889 11.5228C0.122658 11.2025 0 10.819 0 10.4257V9.79319C0 8.93927 0.692236 8.24703 1.54615 8.24703H9.45387ZM5.49774 0C7.39628 0 8.93535 1.53907 8.93535 3.43761C8.93535 5.33615 7.39628 6.87522 5.49774 6.87522C3.5992 6.87522 2.06013 5.33615 2.06013 3.43761C2.06013 1.53907 3.5992 0 5.49774 0Z" fill="#AFAFAF"/>
<path d="M9.45387 8.24703C10.3078 8.24703 11 8.93927 11 9.79319V10.4246C11 10.8188 10.8768 11.2032 10.6476 11.5239C9.58477 13.0112 7.84926 13.748 5.49774 13.748C3.14575 13.748 1.41116 13.0109 0.350889 11.5228C0.122658 11.2025 0 10.819 0 10.4257V9.79319C0 8.93927 0.692236 8.24703 1.54615 8.24703H9.45387ZM5.49774 0C7.39628 0 8.93535 1.53907 8.93535 3.43761C8.93535 5.33615 7.39628 6.87522 5.49774 6.87522C3.5992 6.87522 2.06013 5.33615 2.06013 3.43761C2.06013 1.53907 3.5992 0 5.49774 0Z" fill="black" fill-opacity="0.7" style="mix-blend-mode:hue"/>
<path d="M9.45387 8.24703C10.3078 8.24703 11 8.93927 11 9.79319V10.4246C11 10.8188 10.8768 11.2032 10.6476 11.5239C9.58477 13.0112 7.84926 13.748 5.49774 13.748C3.14575 13.748 1.41116 13.0109 0.350889 11.5228C0.122658 11.2025 0 10.819 0 10.4257V9.79319C0 8.93927 0.692236 8.24703 1.54615 8.24703H9.45387ZM5.49774 0C7.39628 0 8.93535 1.53907 8.93535 3.43761C8.93535 5.33615 7.39628 6.87522 5.49774 6.87522C3.5992 6.87522 2.06013 5.33615 2.06013 3.43761C2.06013 1.53907 3.5992 0 5.49774 0Z" fill="white" fill-opacity="0.16"/>
</svg>
