<svg width="10" height="10" viewBox="0 0 10 10" fill="none" xmlns="http://www.w3.org/2000/svg">
                        <path d="M9.28571 4.28571H5.71429V0.714286C5.71429 0.319796 5.39449 0 5 0C4.60551 0 4.28571 0.319796 4.28571 0.714286V4.28571H0.714286C0.319796 4.28571 0 4.60551 0 5C0 5.39449 0.319796 5.71429 0.714286 5.71429H4.28571V9.28571C4.28571 9.6802 4.60551 10 5 10C5.39449 10 5.71429 9.6802 5.71429 9.28571V5.71429H9.28571C9.6802 5.71429 10 5.39449 10 5C10 4.60551 9.6802 4.28571 9.28571 4.28571Z" fill="#757575"></path>
                    </svg>