<svg width="14" height="14" viewBox="0 0 14 14" fill="none" xmlns="http://www.w3.org/2000/svg">
                        <path fill-rule="evenodd" clip-rule="evenodd" d="M13.7951 13.7953C13.5222 14.0682 13.0742 14.0682 12.8013 13.7953L10.5335 11.5206C10.8975 11.2266 11.2265 10.8976 11.5204 10.5337L13.7951 12.8014C14.0681 13.0744 14.0681 13.5223 13.7951 13.7953Z" fill="#AFAFAF"></path>
                        <path fill-rule="evenodd" clip-rule="evenodd" d="M6.47419 11.5486C9.27669 11.5486 11.5486 9.27669 11.5486 6.47419C11.5486 3.6717 9.27669 1.39982 6.47419 1.39982C3.6717 1.39982 1.39982 3.6717 1.39982 6.47419C1.39982 9.27669 3.6717 11.5486 6.47419 11.5486ZM6.47419 12.9484C10.0498 12.9484 12.9484 10.0498 12.9484 6.47419C12.9484 2.89859 10.0498 0 6.47419 0C2.89859 0 0 2.89859 0 6.47419C0 10.0498 2.89859 12.9484 6.47419 12.9484Z" fill="#AFAFAF"></path>
                    </svg>