<svg width="16" height="16" viewBox="0 0 16 16" fill="none" xmlns="http://www.w3.org/2000/svg">
<path d="M3.15813 0.843426H6.07557C6.42441 0.843426 6.7072 1.12621 6.7072 1.47505C6.7072 1.79482 6.46958 2.05909 6.16128 2.10091L6.07557 2.10668H3.15813C2.15522 2.10668 1.33429 2.88582 1.26762 3.87182L1.26325 4.00156V12.0022C1.26325 13.0051 2.04239 13.826 3.02839 13.8927L3.15813 13.897H11.1593C12.1622 13.897 12.9832 13.1179 13.0498 12.1319L13.0542 12.0022V11.5829C13.0542 11.2341 13.337 10.9513 13.6858 10.9513C14.0056 10.9513 14.2699 11.1889 14.3117 11.4972L14.3175 11.5829V12.0022C14.3175 13.6901 12.9933 15.0687 11.3271 15.1559L11.1593 15.1603H3.15813C1.47021 15.1603 0.0915658 13.8361 0.00437759 12.1699L0 12.0022V4.00156C0 2.31363 1.32419 0.934992 2.9904 0.847804L3.15813 0.843426H6.07557H3.15813ZM9.68829 2.96557V0.632884C9.68829 0.107396 10.2835 -0.175642 10.6879 0.118995L10.7572 0.177054L15.8056 5.01952C16.0412 5.24551 16.0627 5.60851 15.8699 5.85944L15.8057 5.93111L10.7572 10.7751C10.378 11.139 9.76163 10.9054 9.69431 10.4095L9.68829 10.3194V8.0242L9.39902 8.04956C7.37807 8.26037 5.44105 9.17066 3.5758 10.7956C3.13863 11.1765 2.46225 10.8164 2.53415 10.2411C3.09402 5.7611 5.43682 3.29186 9.43618 2.98211L9.68829 2.96557V0.632884V2.96557ZM10.9515 2.11396V3.58047C10.9515 3.92931 10.6688 4.2121 10.3199 4.2121C7.05786 4.2121 5.03614 5.62368 4.1626 8.55531L4.09602 8.78992L4.39263 8.59047C6.27612 7.35944 8.25472 6.7386 10.3199 6.7386C10.6397 6.7386 10.904 6.97622 10.9458 7.28452L10.9515 7.37023V8.83797L14.456 5.47542L10.9515 2.11396Z" fill="#545454"/>
</svg>
